<?xml version="1.0" standalone="no"?>
<!DOCTYPE svg PUBLIC "-//W3C//DTD SVG 20010904//EN"
 "http://www.w3.org/TR/2001/REC-SVG-20010904/DTD/svg10.dtd">
<svg version="1.0" xmlns="http://www.w3.org/2000/svg"
 width="200.000000pt" height="153.000000pt" viewBox="0 0 200.000000 153.000000"
 preserveAspectRatio="xMidYMid meet">
<metadata>
Created by potrace 1.15, written by Peter Selinger 2001-2017
</metadata>
<g transform="translate(0.000000,153.000000) scale(0.100000,-0.100000)"
fill="#000000" stroke="none">
<path d="M0 765 l0 -765 1000 0 1000 0 0 765 0 765 -1000 0 -1000 0 0 -765z
m430 701 c447 -82 760 -79 1214 9 44 8 81 14 83 12 2 -2 -28 -60 -66 -128
l-70 -124 52 -7 c90 -12 208 -66 248 -114 23 -28 0 -26 -38 3 -53 42 -108 69
-173 83 -99 22 -92 28 -215 -192 -60 -109 -115 -198 -122 -198 -29 0 -83 103
-83 158 0 122 137 242 275 242 27 0 45 5 45 11 0 18 -110 5 -166 -20 -69 -31
-110 -65 -141 -119 -39 -67 -40 -157 -1 -223 27 -46 45 -60 83 -64 11 -1 27
-5 35 -8 11 -5 35 29 95 138 72 131 95 164 95 135 0 -5 -34 -70 -76 -145 -42
-75 -75 -138 -72 -140 2 -3 49 -12 104 -20 241 -38 294 -54 358 -107 94 -77
103 -230 19 -328 -75 -88 -177 -124 -343 -123 -132 1 -249 25 -345 73 -71 35
-58 45 -146 -112 -33 -60 -63 -108 -67 -108 -4 0 -36 53 -71 118 -36 64 -68
122 -73 128 -6 9 -25 1 -66 -26 -80 -53 -150 -73 -252 -74 -283 -1 -520 233
-520 513 0 196 110 375 282 461 44 22 89 40 99 40 10 0 20 3 23 8 2 4 -27 64
-65 132 -38 69 -69 129 -69 134 0 4 10 6 23 3 12 -3 60 -12 107 -21z"/>
<path d="M381 1180 c-155 -56 -272 -187 -316 -356 -54 -210 53 -443 252 -546
93 -49 156 -62 269 -56 80 4 103 10 156 37 35 17 73 40 86 50 l23 20 -192 343
c-105 189 -198 354 -206 366 -15 24 -12 39 5 28 5 -3 97 -164 203 -357 121
-220 201 -354 212 -357 11 -3 16 -11 12 -22 -3 -11 20 -63 61 -135 l66 -117
67 118 c52 91 66 123 59 137 -7 14 -6 17 7 15 11 -2 48 54 130 202 104 186
113 206 98 218 -10 7 -22 11 -28 9 -5 -2 -82 -132 -170 -290 -88 -160 -163
-283 -168 -278 -4 4 -131 228 -280 497 -150 268 -276 489 -282 491 -5 1 -34
-6 -64 -17z"/>
<path d="M1355 649 c-32 -57 -85 -150 -117 -207 -32 -57 -58 -110 -58 -117 0
-18 87 -58 175 -81 52 -14 107 -18 215 -18 127 -1 152 2 201 22 200 80 242
309 74 407 -55 33 -118 50 -255 69 -58 9 -121 18 -141 22 l-37 6 -57 -103z"/>
</g>
</svg>
